<svg xmlns="http://www.w3.org/2000/svg" viewBox="0 0 1000 1000" xml:space="preserve"><path d="M828.7 865.4c-2.5-7.6-50.4-20.1-50.4-20.1-42.8-17.6-42.8-75.5 0-93.3 0 0 45.4-12.5 50.4-20.1 7.6-15.1 20.1-47.9 20.1-47.9 7.6-20.1 25.2-30.3 40.3-30.3V442.1c0-32.7-5.1-65.5-10.2-95.8-37.7-189-221.7-347.8-448.4-325.1-70.6 7.6-133.6 30.3-188.9 65.5 30.3 12.5 88.2 35.2 88.2 35.2 42.8 17.6 42.8 75.5 0 93.3 0 0-85.7 27.8-88.2 35.2-12.5 30.3-35.2 88.2-35.2 88.2-17.6 42.8-75.5 42.8-93.3 0l-27.6-67.7c-22.7 53-32.7 110.9-32.7 171.3v385.5c0 93.3 57.9 151.2 153.7 151.2h214.1c-15.1-5.1-30.3-10.2-45.4-17.6-136.1-63-201.6-229.4-181.5-375.5 2.5-17.6 10.2-22.7 27.8-25.2C345 548 594.5 497.5 622.1 379c2.5-15.1 5.1-27.8 7.6-42.8 5.1 5.1 7.6 10.2 7.6 15.1 141 176.4 116 246.8 116 236.8 5.1 47.9 5.1 95.8-7.6 143.6C715.4 852.5 652.4 943.3 524 981h216.6c50.4 0 93.3-20.1 118.3-53-5.1-5.1-7.6-10.2-10.2-15.1.3.4-15-32.3-20-47.5z"/><path d="m921.9 769.8-27.8-68.1-27.6 68.1-68.1 27.6 68.1 27.8 27.6 68.1 27.8-68.1 68.1-27.8-68.1-27.6zm-662.5-73.2c78-57.9 168.8 0 168.8 0-90.8-125.9-168.8 0-168.8 0zm269.6 0c78-57.9 168.8 0 168.8 0-90.7-125.9-168.8 0-168.8 0zM161.2 321.3 204 213l108.3-42.8L204 127.3 161.2 19l-42.8 108.3L10 170.1 118.3 213l42.9 108.3z"/></svg>