<svg xmlns="http://www.w3.org/2000/svg" viewBox="0 0 1000 1000" xml:space="preserve"><path d="M713.1 511.7s255.5 36.9 276.8-253.8M10 119.5l68.6-68.4L224.4 139v88h9.7l364.4 371.9v7.9l39.2-37.2s35.6-22.6 57 9.7l225.4 234.5s23.3 20.1 0 47.7l-58.7 68.4"/><path d="m863 927.9-50 49.6s-24.5 18.9-47.8 0L520.2 724s-15.4-14.1 0-37.7l30-29.4h7.9l-.6-8.6h-8.4L402 490.5M12.2 117.4l86.6 148h66.8l-153.4-148z"/><path d="M166.2 979.3s-38 19.5-78.4 0l-49-49.5s-22-39.1 0-86.1l500.4-431.1h9.9l67.9 67.1-450.8 499.6z"/><path d="m546.5 416.7 267.8-90.4 146.9-146.6s28.7-55.3 28.7 89.6L744.1 505.5l-146.9-114M739.3 12.8c136.3.9 84.8 26.9 84.8 26.9L675.6 191.4l-8.3-25.5"/><path d="M546.5 420.8 812 327.2 685.4 197.7h-9.7v-6.3l-8.3-32.8-120.9 262.2z"/><path d="m540 424 34.3-40.7-17.1-8.2L540 424zm19.1 222.5-9.7 11.1h9.7v-11.1z"/><path d="m578.4 340 5 44-26.2-4.3 21.2-39.7zm-24.2 72.7-4.8 11.3 63.9 59.9s46.4 37.1 137.2 25.6"/><path d="M611.9 479.5h25.3l-25.3-81.7-65.7 19 65.7 62.7z"/><path d="m602.8 405.3 40.1-5.8 101.2 105.9h-13l-87.4-35.8-31-26.1-9.9-38.2zM540 424S366.1 79.2 744.1 12"/><path d="m602.8 240.4 56.4 63.5-85 58 28.6-126.4v4.9zm-50.9 166.4 1.5 7.8-6.9 1.6 5.4-9.4zm122.6-215.4 10.8 6.3-9.9 1.5-.9-7.8z"/><path d="m685.4 197.7-8.6-7.4-3.3 1.2 11.9 6.2zm-451.3 29.4-9.7-9-8 9h17.7z"/><path d="M517.4 184.4h149.9l151.3 149.2L685.4 500l-168-315.6z"/></svg>